name Walk4.mot
datacolumns 19
datarows 12
range 3.13500000 3.14600000
endheader

                time	   L_ground_force_vx	   L_ground_force_vy	   L_ground_force_vz	   L_ground_force_px	   L_ground_force_py	   L_ground_force_pz	   R_ground_force_vx	   R_ground_force_vy	   R_ground_force_vz	   R_ground_force_px	   R_ground_force_py	   R_ground_force_pz	   L_ground_torque_x	   L_ground_torque_y	   L_ground_torque_z	   R_ground_torque_x	   R_ground_torque_y	   R_ground_torque_z	
          3.13500000	         -0.00000000	         -0.00000000	         -0.00000000	          0.00000000	          0.00000000	          0.00000000	         29.92413576	        181.97006902	          9.79350129	          0.48023677	          0.00000000	          0.11959034	          0.00000000	         -0.00000000	          0.00000000	          0.00000000	         -5.90507502	          0.00000000	
          3.13600000	         -0.00000000	         -0.00000000	         -0.00000000	          0.00000000	          0.00000000	          0.00000000	         28.86443184	        175.14059837	          9.52805007	          0.47951682	          0.00000000	          0.11919551	          0.00000000	         -0.00000000	          0.00000000	          0.00000000	         -5.71167305	          0.00000000	
          3.13700000	         -0.00000000	         -0.00000000	         -0.00000000	          0.00000000	          0.00000000	          0.00000000	         27.81422173	        168.46403227	          9.25498085	          0.47863583	          0.00000000	          0.11875976	          0.00000000	         -0.00000000	          0.00000000	          0.00000000	         -5.51960334	          0.00000000	
          3.13800000	         -0.00000000	         -0.00000000	         -0.00000000	          0.00000000	          0.00000000	          0.00000000	         26.77442575	        161.93998964	          8.97536635	          0.47758466	          0.00000000	          0.11828094	          0.00000000	         -0.00000000	          0.00000000	          0.00000000	         -5.32903351	          0.00000000	
          3.13900000	         -0.00000000	         -0.00000000	         -0.00000000	          0.00000000	          0.00000000	          0.00000000	         25.74597040	        155.56790113	          8.69026458	          0.47635400	          0.00000000	          0.11775695	          0.00000000	         -0.00000000	          0.00000000	          0.00000000	         -5.14013377	          0.00000000	
          3.14000000	         -0.00000000	         -0.00000000	         -0.00000000	          0.00000000	          0.00000000	          0.00000000	         24.72977608	        149.34703601	          8.40071188	          0.47493445	          0.00000000	          0.11718565	          0.00000000	         -0.00000000	          0.00000000	          0.00000000	         -4.95307452	          0.00000000	
          3.14100000	         -0.00000000	         -0.00000000	         -0.00000000	          0.00000000	          0.00000000	          0.00000000	         23.72674727	        143.27652607	          8.10771651	          0.47331647	          0.00000000	          0.11656498	          0.00000000	         -0.00000000	          0.00000000	          0.00000000	         -4.76802438	          0.00000000	
          3.14200000	         -0.00000000	         -0.00000000	         -0.00000000	          0.00000000	          0.00000000	          0.00000000	         22.73776465	        137.35538638	          7.81225308	          0.47149050	          0.00000000	          0.11589287	          0.00000000	         -0.00000000	          0.00000000	          0.00000000	         -4.58514862	          0.00000000	
          3.14300000	         -0.00000000	         -0.00000000	         -0.00000000	          0.00000000	          0.00000000	          0.00000000	         21.76367921	        131.58253303	          7.51525817	          0.46944692	          0.00000000	          0.11516734	          0.00000000	         -0.00000000	          0.00000000	          0.00000000	         -4.40460803	          0.00000000	
          3.14400000	         -0.00000000	         -0.00000000	         -0.00000000	          0.00000000	          0.00000000	          0.00000000	         20.80530787	        125.95679759	          7.21762705	          0.46717611	          0.00000000	          0.11438643	          0.00000000	         -0.00000000	          0.00000000	          0.00000000	         -4.22655818	          0.00000000	
          3.14500000	         -0.00000000	         -0.00000000	         -0.00000000	          0.00000000	          0.00000000	          0.00000000	         19.86343023	        120.47693803	          6.92021126	          0.46466852	          0.00000000	          0.11354824	          0.00000000	         -0.00000000	          0.00000000	          0.00000000	         -4.05114891	          0.00000000	
          3.14600000	         -0.00000000	         -0.00000000	         -0.00000000	          0.00000000	          0.00000000	          0.00000000	         18.93878628	        115.14164683	          6.62381706	          0.46191467	          0.00000000	          0.11265098	          0.00000000	         -0.00000000	          0.00000000	          0.00000000	         -3.87852393	          0.00000000	
